<svg width="169" height="115" viewBox="0 0 169 115" fill="none" xmlns="http://www.w3.org/2000/svg">
<path fill-rule="evenodd" clip-rule="evenodd" d="M61.966 90.3681C66.9799 83.6077 71.4957 76.4353 74.3826 69.5182C86.0138 41.6495 66.9066 26.0103 52.4886 48.4541C46.4119 57.9143 41.7204 71.5432 38.8975 77.4192C43.1672 62.9777 58.3743 20.9949 38.6675 14.9564C18.9637 8.9177 15.3498 41.3441 13.4146 50.1017C12.1448 34.7305 13.3071 -1.75468 -10.3649 1.04035C-29.9824 3.35623 -20.9156 44.2525 -9.89126 79.5143C-10.633 78.2523 -11.4148 76.9379 -12.2169 75.6227C-16.6793 68.3035 -21.7598 60.9712 -24 62.6099V106.043C-23.3106 108.741 -22.5235 111.47 -21.7062 114.101H1.79592H41.4792H67.826C75.9763 106.005 86.6546 93.6254 81.5043 88.6651C74.49 81.9121 64.2675 88.6859 61.966 90.3681Z" fill="#3AA075"/>
<path fill-rule="evenodd" clip-rule="evenodd" d="M59.0389 59.879C59.2314 59.4608 59.7262 59.2794 60.1438 59.4715C60.5608 59.6642 60.7434 60.1578 60.5511 60.5761C60.5154 60.6539 48.2067 87.5204 28.4127 107.785C28.0923 108.115 27.5654 108.122 27.2361 107.8C26.907 107.481 26.8996 106.955 27.22 106.625C46.8113 86.568 59.0038 59.9557 59.0389 59.879Z" fill="#2D7C5A"/>
<path fill-rule="evenodd" clip-rule="evenodd" d="M20.7508 107.408C20.6391 107.853 20.1866 108.124 19.7402 108.013C19.2943 107.903 19.0228 107.45 19.1345 107.003C25.9672 79.8302 29.9647 54.744 34.8946 23.7994L35.1095 22.4514C35.1815 21.999 35.6078 21.6893 36.0611 21.7613C36.5148 21.8334 36.824 22.2593 36.7521 22.7138L36.5371 24.0605C31.5973 55.0644 27.592 80.1988 20.7508 107.408Z" fill="#2D7C5A"/>
<path fill-rule="evenodd" clip-rule="evenodd" d="M-7.09112 19.9767C-7.18626 19.526 -6.89896 19.0843 -6.4488 18.9888C-5.99854 18.894 -5.55685 19.1817 -5.46172 19.6316C-2.43352 33.9025 0.817984 48.2886 4.30374 62.7971C7.78712 77.296 11.5313 92.0222 15.5476 106.99C15.6663 107.434 15.4016 107.891 14.9573 108.01C14.5132 108.128 14.0565 107.865 13.9379 107.42C9.94921 92.5548 6.20238 77.8105 2.68705 63.1818C-0.825614 48.5608 -4.08106 34.1628 -7.09112 19.9767Z" fill="#2D7C5A"/>
<path fill-rule="evenodd" clip-rule="evenodd" d="M83.4851 91.7408C90.1725 85.5676 98.8733 82.7128 108.22 88.8012C109.587 87.9568 111.32 87.7248 113.016 88.2532C113.143 81.2895 115.102 75.5489 121.606 75.8348C129.582 76.1842 132.586 82.6183 133.803 88.8438C135.081 88.9322 136.288 89.2779 137.373 89.8284C139.913 81.8209 144.433 73.7096 154.975 77.8934C161.998 80.6809 162.075 88.1039 158.948 96.9975C162.347 96.5458 166.004 97.3507 168.086 101.764C169.054 103.816 169.218 106.02 168.743 108.245H91.9375H72.6419H54.1705C54.7636 105.365 56.0828 101.689 59.0091 98.9136C64.6132 93.5966 69.7869 99.4883 69.7869 99.4883C69.7869 99.4883 66.0508 94.0269 69.4999 90.1474C72.2923 87.0052 78.7601 88.1983 83.4851 91.7408Z" fill="#F7AFA7"/>
<path fill-rule="evenodd" clip-rule="evenodd" d="M95.9962 91.2924C96.261 90.9253 96.5036 90.5431 96.7636 90.1723C96.9851 89.8623 97.196 89.59 97.4627 89.3154C97.7313 89.0439 98.4757 88.5334 98.5334 88.2619C98.4689 87.636 97.1902 87.7236 96.7877 87.7977C96.1782 87.9482 95.741 88.1822 95.2394 88.5545C94.7415 88.9419 94.3727 89.3241 93.9962 89.8277C93.2567 90.9109 93.3675 90.9599 94.235 91.5147C95.0776 92.1222 95.2191 92.2986 95.9962 91.2924Z" fill="#FBD9D5"/>
<path fill-rule="evenodd" clip-rule="evenodd" d="M101.138 91.0031C101.537 90.7737 101.929 90.5119 102.317 90.2645C102.643 90.0496 102.974 89.8341 103.297 89.6114C103.433 89.525 103.58 89.4478 103.715 89.3602C103.874 89.2545 104.202 89.1601 104.307 89.0051C104.479 88.7027 104.111 88.4244 103.885 88.2953C103.634 88.1566 103.405 88.1009 103.121 88.0652C102.54 87.9918 102.055 88.0633 101.491 88.2047C100.929 88.3665 100.435 88.5621 99.924 88.8434C98.9534 89.4343 99.1691 89.549 99.6958 90.331C100.179 91.1039 100.23 91.4767 101.138 91.0031Z" fill="#FBD9D5"/>
<path fill-rule="evenodd" clip-rule="evenodd" d="M89.8309 92.4438C90.0957 92.0771 90.3384 91.6957 90.5983 91.3252C90.8208 91.0142 91.0307 90.7415 91.2964 90.4673C91.5661 90.1957 92.3104 89.6864 92.3672 89.4138C92.3036 88.7879 91.0259 88.8755 90.6224 88.9489C90.0119 89.0989 89.5767 89.3336 89.0741 89.7056C88.5762 90.0926 88.2074 90.4759 87.8319 90.9795C87.0905 92.0617 87.2031 92.1117 88.0688 92.6665C88.9123 93.2729 89.0538 93.4504 89.8309 92.4438Z" fill="#FBD9D5"/>
</svg>
